<svg xmlns="http://www.w3.org/2000/svg" width="273.291" height="282.088" viewBox="0 0 273.291 282.088">
  <g id="Groupe_21" data-name="Groupe 21" transform="translate(-72 -325)">
    <g id="Groupe_5" data-name="Groupe 5" transform="translate(117.586 323.174)">
      <path id="Tracé_7" data-name="Tracé 7" d="M165.882,80.8c0,43.619-34.131,78.979-76.234,78.979S13.414,124.423,13.414,80.8,47.547,1.826,89.65,1.826,165.882,37.186,165.882,80.8ZM33.214,73.064c0,22.83,13.668,42.343,32.983,50.272A54.831,54.831,0,0,1,49.67,83.875c0-29.862,23.367-54.067,52.187-54.067A50.475,50.475,0,0,1,121.064,33.6,51.031,51.031,0,0,0,85.4,18.993C56.576,19,33.214,43.2,33.214,73.064Z" transform="translate(0 0)" fill="#efe7d5"/>
      <g id="Groupe_3" data-name="Groupe 3" transform="translate(34.16 151.179)">
        <path id="Tracé_8" data-name="Tracé 8" d="M78.04,104.387c-30.48,0-50.553-15.362-51.393-16.016A8.839,8.839,0,0,1,37.484,74.4,72.446,72.446,0,0,0,78.043,86.709c24.642,0,40.772-9.483,45.128-12.391a8.84,8.84,0,1,1,9.815,14.7c-6.928,4.62-26.141,15.364-54.945,15.364Z" transform="translate(-23.239 -72.557)" fill="#efe7d5"/>
      </g>
      <g id="Groupe_4" data-name="Groupe 4" transform="translate(24.88 170.625)">
        <path id="Tracé_9" data-name="Tracé 9" d="M82.533,116.049c-35.753,0-59.242-17.67-60.224-18.423A8.84,8.84,0,0,1,33.036,83.571c.384.289,20.121,14.8,49.5,14.8,29.9,0,49.556-11.354,54.865-14.832a8.839,8.839,0,0,1,9.69,14.785c-8.134,5.33-30.706,17.727-64.555,17.727Z" transform="translate(-18.844 -81.766)" fill="#efe7d5"/>
      </g>
    </g>
    <g id="Groupe_6" data-name="Groupe 6" transform="translate(70.55 483.2)">
      <path id="Tracé_66" data-name="Tracé 66" d="M107.848,560.546,93.125,590.758l37.624,5.935,11.269-14.8V560.546Z" transform="translate(-70.55 -483.2)" fill="#efe7d5"/>
      <path id="Tracé_67" data-name="Tracé 67" d="M191.047,560.546l-9.039,25.712L200.1,597.265l36.031-4.508V569.874l-12.183-9.328Z" transform="translate(-70.55 -483.2)" fill="#efe7d5"/>
      <path id="Tracé_68" data-name="Tracé 68" d="M267.953,560.546l2.9,14.343v12.664l16.917,4.095H314.3l4.718-8.613v-8.147l-4.718-9.537-9.615-7.028Z" transform="translate(-70.55 -483.2)" fill="#efe7d5"/>
      <path id="Tracé_10" data-name="Tracé 10" d="M97.589,68c-.314-1.256-1.884-2.2-3.768-2.2H47.036c-1.884,0-3.768.942-3.768,2.2L33.22,121.69c-.314,1.256,1.884,2.2,4.4,2.2h65.31c2.826,0,4.71-.942,4.4-2.2ZM85.971,91.233,79.063,95a.308.308,0,0,0-.314.314l1.884,5.338a.6.6,0,0,1-.942.314l-9.106-2.512h-.628l-9.106,2.512c-.628,0-1.256,0-.942-.314l1.884-5.338A.308.308,0,0,0,61.48,95l-6.908-3.768c-.314-.314,0-.628.314-.628l9.734-.628c.314,0,.314,0,.628-.314l4.4-4.71a.955.955,0,0,1,1.256,0l4.4,4.71a1.1,1.1,0,0,0,.628.314l9.734.628C86.285,90.605,86.6,91.233,85.971,91.233Z" transform="translate(67.923 0)" fill="#9f2929"/>
      <path id="Tracé_11" data-name="Tracé 11" d="M149.206,121.69,114.667,68c-.628-1.256-2.826-2.2-5.024-2.2H62.859c-1.884,0-3.14.942-2.826,2.2L74.79,121.69c.314,1.256,2.826,2.2,5.652,2.2h65.31C148.578,123.888,150.148,122.946,149.206,121.69ZM117.179,93.431,109.643,95l6.28,4.4c.628.314,0,.628-.628.628l-10.048-2.2-1.256,4.71c0,.314-.942.314-1.256,0L97.4,97.827l-7.85,1.884c-.628.314-1.57-.314-1.256-.628l2.2-4.4-9.106-1.57c-.628,0-.942-.628-.314-.628l7.85-1.57-5.652-4.4c-.314-.314,0-.628.628-.628l8.792,1.884,1.256-4.4c0-.314.942-.314,1.256,0l5.338,4.4,6.908-1.884a.927.927,0,0,1,1.256.628l-1.57,4.4,9.42,1.884C117.493,92.8,117.807,93.117,117.179,93.431Z" transform="translate(125.26 0)" fill="#9f2929"/>
      <path id="Tracé_12" data-name="Tracé 12" d="M87.956,65.8H41.171A6.831,6.831,0,0,0,36.147,68L1.608,121.69c-.628,1.256.628,2.2,3.454,2.2h65.31c2.826,0,5.024-.942,5.652-2.2L91.1,68C91.409,66.742,90.153,65.8,87.956,65.8ZM65.976,96.885c-5.652,3.768-16.014,5.652-23.549,3.768-5.966-1.57-7.85-5.338-4.71-9.106,3.768-4.4,11.932-7.222,19.153-7.222.628,0,.628.314,0,.628-3.454,1.256-6.594,2.826-7.85,5.338-1.57,2.512,0,5.024,3.454,6.28a21.4,21.4,0,0,0,12.56,0C65.976,96.257,66.29,96.571,65.976,96.885Z" transform="translate(0 0)" fill="#9f2929"/>
    </g>
  </g>
</svg>
