<svg xmlns="http://www.w3.org/2000/svg" width="378.019" height="172.696" viewBox="0 0 378.019 172.696">
  <g id="Groupe_12" data-name="Groupe 12" transform="translate(-108.812 -335.214)">
    <g id="Groupe_8" data-name="Groupe 8">
      <path id="Tracé_26" data-name="Tracé 26" d="M386.788,414.127v21.015c31.65-.546,46.054-4.155,52.2-6.563Z" fill="#9f2929"/>
      <path id="Tracé_27" data-name="Tracé 27" d="M208.968,495.864V475.487c-30.164.517-44.643,3.8-51.251,6.19Z" fill="#9f2929"/>
      <path id="Tracé_28" data-name="Tracé 28" d="M147.291,456.022l-38.479,4.639L134.354,481.2,108.812,507.91l85.5-10.22-47.02-13.368Z" fill="#9f2929"/>
      <path id="Tracé_29" data-name="Tracé 29" d="M486.831,449.444,461.287,428.9l25.541-26.7-85.5,10.213,47.023,13.373v28.293Z" fill="#9f2929"/>
      <path id="Tracé_30" data-name="Tracé 30" d="M225.032,375.067V374.7c1.191-.321,6.457-5.724,6.457-9.938,0-1.419-.779-2.518-1.878-2.518-3.709,0-9.067,9.571-9.067,14.059,0,1.465.5,2.289,1.42,2.289,1.191,0,4.4-2.2,4.4-3.068C226.36,375.159,225.4,375.067,225.032,375.067Zm2.934-8.362a16.549,16.549,0,0,1-2.342,3.523A21.961,21.961,0,0,1,227.966,366.7Z" fill="#9f2929"/>
      <path id="Tracé_31" data-name="Tracé 31" d="M270.36,378.593c1.191,0,4.4-2.2,4.4-3.068,0-.366-.961-.458-1.328-.458V374.7c1.191-.321,6.457-5.724,6.457-9.938,0-1.419-.779-2.518-1.878-2.518-3.709,0-9.067,9.571-9.067,14.059C268.94,377.769,269.444,378.593,270.36,378.593Zm6-11.888a16.55,16.55,0,0,1-2.342,3.523A21.962,21.962,0,0,1,276.362,366.7Z" fill="#9f2929"/>
      <path id="Tracé_32" data-name="Tracé 32" d="M337.712,363.069c0-.5-.275-.778-.824-.778-1.6,0-5.221,3.846-7.511,7.877C332.995,369.389,337.712,365.68,337.712,363.069Z" fill="#9f2929"/>
      <path id="Tracé_33" data-name="Tracé 33" d="M360.125,433.566c2.164,0,3.382-1.082,3.382-4.194V418.888c-5.411.068-6.7,1.826-6.7,7.982C356.811,432.619,357.96,433.566,360.125,433.566Zm.325-11.068a.445.445,0,0,1,.057-.059v6.933a4.541,4.541,0,0,1-.119,1.182,2.368,2.368,0,0,1-.255.012,14.139,14.139,0,0,1-.322-3.7C359.811,423.9,360.158,422.854,360.45,422.5Z" fill="#9f2929"/>
      <path id="Tracé_34" data-name="Tracé 34" d="M360.125,433.566c2.164,0,3.382-1.082,3.382-4.194V418.888c-5.411.068-6.7,1.826-6.7,7.982C356.811,432.619,357.96,433.566,360.125,433.566Zm.325-11.068a.445.445,0,0,1,.057-.059v6.933a4.541,4.541,0,0,1-.119,1.182,2.368,2.368,0,0,1-.255.012,14.139,14.139,0,0,1-.322-3.7C359.811,423.9,360.158,422.854,360.45,422.5Z" fill="#9f2929"/>
      <path id="Tracé_35" data-name="Tracé 35" d="M360.125,433.566c2.164,0,3.382-1.082,3.382-4.194V418.888c-5.411.068-6.7,1.826-6.7,7.982C356.811,432.619,357.96,433.566,360.125,433.566Zm.325-11.068a.445.445,0,0,1,.057-.059v6.933a4.541,4.541,0,0,1-.119,1.182,2.368,2.368,0,0,1-.255.012,14.139,14.139,0,0,1-.322-3.7C359.811,423.9,360.158,422.854,360.45,422.5Z" fill="#9f2929"/>
      <path id="Tracé_36" data-name="Tracé 36" d="M378.448,440.513a329.045,329.045,0,0,1-39.976-2.661h7.205V435.39c2.678,2.075,6.546,3.274,11.2,3.274,1.608,0,5.513,0,8.139-2.448a14.049,14.049,0,0,0,8.163,2.109c6.973,0,10.508-3.148,10.508-9.358V425.29h-5v-9.784c0-12.026-9.858-13.417-17.272-13.417-16.028,0-17.273,8.354-17.273,10.914a7.467,7.467,0,0,0,2.311,5.655,10.322,10.322,0,0,0-3.952,4.416v-9.056c0-5.5-3.6-11.929-13.755-11.929-4.885,0-7.923,1.589-9.812,3.574-3.09-3.009-7.406-3.574-10.21-3.574a16.288,16.288,0,0,0-6.4,1.147v-.47h-22.1v.582a10.693,10.693,0,0,0-5.183-1.259,11.151,11.151,0,0,0-4.44.874v-.2H248.7v7.15h3.45v15.012q-2.844-.311-5.7-.585V392.4h5.682v-7.217h-4.126a12.141,12.141,0,0,0,2-1.355,7.924,7.924,0,0,0,5.335,1.982c1.947,0,4.056-1.059,6.384-3.194a7.7,7.7,0,0,0,6.48,3.606,11.114,11.114,0,0,0,6.563-2.507,6.257,6.257,0,0,0,4.8,2.1,7.627,7.627,0,0,0,4.128-1.431,8.445,8.445,0,0,0,4.751,1.8c1.83,0,3.131-1.272,4.9-3.808.741,2.84,4.815,4.038,7.1,4.038,2.349,0,3.36-1.892,5.2-5.325q.15-.279.3-.567a7.2,7.2,0,0,0,7.049,5.571c2.266,0,4.761-1.3,7.438-3.845a8.226,8.226,0,0,0,6.89,4.074c5.11,0,9.481-3.215,12.249-5.912.218-.213,5.359-5.26,5.359-8.445a7.062,7.062,0,0,0-.179-1.755,3.583,3.583,0,0,0-2.066-2.5,9.358,9.358,0,0,0,1.42-4.582c0-3.452-2.728-6.48-5.838-6.48a8.145,8.145,0,0,0-1.96.282,6,6,0,0,1-1.521.222c-3.6,0-7.15,2.4-9.995,5.693a6.479,6.479,0,0,0,.087-1.045c0-3.308-4.419-4.968-6.892-4.968-1.134,0-2.7.362-5.276,2.449a8.02,8.02,0,0,0-5.852-2.358c-1.2,0-2.514.55-4.422,2-1.757-2.237-6.056-2.5-6.111-2.5-1.065,0-2.091,0-4.6,3.767a3.835,3.835,0,0,0-3.34-2.907l-.024-.01a5.031,5.031,0,0,0-2.01-.346,4.512,4.512,0,0,0-3,1.343,7.34,7.34,0,0,0-4.65-1.527c-3.986,0-8.281,2.247-11.945,6.2l.223-.414c4-7.445,4.788-9.023,4.788-10.388,0-3.13-2.492-6.618-6.068-6.618-2.131,0-3.147,1.712-5.063,5.275-1.074,2-2.31,4.459-3.348,6.538a5.989,5.989,0,0,0-2.671-.594c-3.785,0-7.85,2.022-11.387,5.61a5.187,5.187,0,0,0,.2-1.327c0-.718-.25-3.1-3.439-3.743l-.024-.01a5.035,5.035,0,0,0-2.01-.346,4.512,4.512,0,0,0-3,1.343,7.342,7.342,0,0,0-4.65-1.527c-4.321,0-9.006,2.634-12.854,7.227-.431.514-.841,1.042-1.23,1.579.683-1.44,1.38-2.863,2.059-4.251,1.467-3,3.175-6.123,4.681-8.883,3.538-6.479,5.238-9.694,5.238-11.95,0-3.047-2.457-5.174-5.975-5.174a10.806,10.806,0,0,0-5.677,1.317l-.027.016-.027.016c-2.172,1.314-5.471,5.145-8.916,9.686,1.566-4.417,1.566-5.3,1.566-5.861,0-4.722-4.419-5.232-6.319-5.232h-.3a9.383,9.383,0,0,0-6.391,2.142c-4.445,3.9-10.185,12.368-14.214,18.778-.611.981-1.279,2.052-1.993,3.17a10.916,10.916,0,0,0-10.746-9.782c-10.785,0-21.37,10.727-21.37,21.656,0,9.222,5.621,15.418,13.988,15.418,8.323,0,15.867-6.928,22.054-14.861-1.3,3.263-2.282,5.693-2.548,6.256-.16.271-.342.526-.533.794a5.6,5.6,0,0,0-1.315,3.323c0,1.912,1.55,4.144,5.919,4.144a9.8,9.8,0,0,0,7.258-2.653c.854-.729,2.433-2.818,5.19-6.778a31.128,31.128,0,0,0-.913,7c0,7.778,5,13.643,11.641,13.643a12.269,12.269,0,0,0,7.7-3.211,16.716,16.716,0,0,0,1.869-1.861H223.2v30.536c-1.96-.043-3.924-.071-5.9-.071-55.513,0-64.72,8.824-64.72,8.824v47.252s8.977-8.825,64.72-8.825,104.924,17.649,161.144,17.649,64.72-8.822,64.72-8.822v-47.25S434,440.513,378.448,440.513Zm-14.941-22.639V411.38c0-3.72-1.488-5.073-5.276-5.073-3.179,0-5.547,1.014-6.7,3.044v.067c2.841.068,4.533,1.692,4.533,3.992a4.062,4.062,0,0,1-4.329,4.261,4.414,4.414,0,0,1-4.6-4.668c0-4.058,3.72-7.914,14.273-7.914s14.272,3.45,14.272,10.417v15.9c0,1.353.541,1.759,1.352,1.759,1.692,0,2.571-1.624,2.571-4.4v-.474h1.082v.677c0,5.073-2.841,6.358-7.508,6.358-4.87,0-7.373-1.487-8.726-4.329-.609,3.517-3.112,4.668-7.576,4.668-6.9,0-12.243-2.909-12.243-8.388C344.635,422.338,348.9,418.347,363.507,417.874Zm-5.748-8.556c.168-.008.327-.011.472-.011,1.64,0,1.989.313,1.992.317s.284.333.284,1.756V415c-.513.032-1.056.072-1.621.122a8.037,8.037,0,0,0,.181-1.716A6.76,6.76,0,0,0,357.759,409.318ZM208.54,394.468c-4.693,0-8.641-4.234-8.641-10.643,0-11.56,11.159-30.73,14.306-35.423l-.286-.056c-4.406,5.321-20.887,30.958-23.233,32.961a6.876,6.876,0,0,1-5.322,1.945c-1.545,0-2.919-.4-2.919-1.144,0-.8.8-1.488,1.488-2.69.686-1.259,10.072-25.236,11.731-30.043h-.515c-5.093,6.867-18.541,34.221-33.362,34.221-6.982,0-10.988-5.207-10.988-12.418,0-9.5,9.442-18.656,18.37-18.656,4.749,0,7.839,4.121,7.839,8.355,0,5.551-6.065,12.59-11.788,12.59-2.346,0-3.662-.458-3.662-.744,0-.343,1.144-.343,2.174-.858.973-.515,7.439-5.094,7.439-11.388,0-3.033-1.373-4.921-3.719-4.921-5.608,0-11.5,8.755-11.5,14.706,0,5.15,2.747,7.955,7.611,7.955,8.07,0,15.681-12.132,20.888-20.487,3.777-6.009,9.442-14.421,13.677-18.14a6.7,6.7,0,0,1,4.388-1.376l.3,0c1.774,0,3.319.287,3.319,2.232,0,2.8-9.213,24.492-10.93,28.555l.344.23c5.036-8.069,17.854-27.24,22.489-30.044a7.837,7.837,0,0,1,4.178-.915c1.2,0,2.975.4,2.975,2.174,0,2.518-5.55,11.216-9.613,19.514s-7.9,16.366-7.9,23.519c0,4.006,2.232,6.239,5.151,6.239,2.288,0,3.262-1.489,3.6-1.489.286,0,.4.286.4.515C216.837,389.72,212.832,394.468,208.54,394.468Zm-49.559-23.346q-.031-.406-.032-.86c0-4.814,5.007-11.706,8.5-11.706.667,0,.719,1.47.719,1.921,0,4.432-4.781,8.113-5.824,8.725a5.231,5.231,0,0,1-.734.225A4.043,4.043,0,0,0,158.981,371.122Zm57.127,14.13a3.773,3.773,0,0,0-2,.92,1.81,1.81,0,0,1-1.28.548c-1.871,0-2.151-2.029-2.151-3.239a25.707,25.707,0,0,1,1.186-7.126c-.015.242-.047.492-.047.727C211.82,381.154,213.675,383.9,216.108,385.252Zm3.7-2.034c-2.518,0-4.991-2.06-4.991-6.136,0-6.731,7.968-17.356,15.478-17.356a4.068,4.068,0,0,1,4.167,3.161c.229,0,2.656-2.977,3.481-2.977a3.213,3.213,0,0,1,1.328.274c.458.092,1.145.183,1.145.825,0,2.519-8.06,13.875-8.06,16.714,0,.459.229.779.687.779.918,0,2.021-.8,3.117-1.891h0l.017-.018c.224-.224.446-.46.668-.7l.061-.068q.322-.357.636-.733l.083-.1c.2-.239.395-.481.586-.722.037-.047.074-.092.11-.139.135-.171.269-.342.4-.511l0-.006c.9-1.177,1.665-2.257,2.113-2.814,2.742-5.586,8.376-11.073,13.773-11.073,2.61,0,3.16,2.748,3.206,3.161,1.236-2.2,6.96-14.38,7.876-14.38,1.832,0,3.068,2.107,3.068,3.618,0,1.785-12.181,21.843-12.181,25.6,0,.459.229.779.687.779,1.866,0,4.492-3.285,6.261-5.672l0-.006c.481-.647.9-1.234,1.223-1.665,2.674-5.708,8.429-11.433,13.942-11.433a4.067,4.067,0,0,1,4.167,3.161c.229,0,2.657-2.977,3.481-2.977a3.213,3.213,0,0,1,1.328.274c.458.092,1.145.183,1.145.825,0,2.519-8.06,13.875-8.06,16.714,0,.459.229.779.687.779a2.286,2.286,0,0,0,.851-.211h0l.008,0c1.352-.57,2.929-2.28,4.279-3.978l.007-.016c.975-1.223,1.831-2.429,2.393-3.169q.513-1,1.068-2.057c3.068-5.816,5.586-9.662,6.273-9.662.779,0,3.847.733,3.847,1.648,0,1.008-1.969,5.221-2.152,5.862.137,0,6.823-7.006,8.838-7.006,1.969,0,4.4,1.42,4.4,2.655a23.991,23.991,0,0,1-1.465,3.8c1.419-1.6,5.907-6.548,8.2-6.548,1.694,0,3.892,1.144,3.892,1.968,0,1.237-.595,2.015-1.19,3.252-.642,1.236-5.816,10.578-5.816,12.547,0,.55.137.961,1.1.961.891,0,2.174-1.194,3.442-2.67l0,0c.415-.483.827-.993,1.223-1.5l.011-.014c.382-.492.748-.98,1.087-1.44l.075-.1.047-.062h0c.491-.669.921-1.268,1.242-1.7,2.288-5.292,7.182-10.915,11.686-10.915,1.649,0,2.519-.5,3.481-.5,1.465,0,2.838,1.695,2.838,3.48,0,3.435-5.083,9.388-12.455,9.388a1.262,1.262,0,0,1-.412-.046,9.89,9.89,0,0,0-.962,3.755c0,2.015.733,3.3,2.427,3.3,6.091,0,11.128-9.067,11.677-9.067.5,0,.55.824.55,1.511,0,1.649-7.006,11.357-14.608,11.357-3.114,0-5.541-3.16-5.541-6.915,0-.068.006-.14.008-.209a34.229,34.229,0,0,1-2.636,3.1v0c-2.018,2.088-4.291,3.795-6.16,3.795a4.142,4.142,0,0,1-4.213-4.075c0-5.221,4.808-12.639,5.953-14.288l-.137-.092a41,41,0,0,0-8.838,10.166c-2.7,4.3-4.4,8.61-5.312,8.61-1.6,0-4.213-1.008-4.213-1.97a.578.578,0,0,1,.046-.274c2.243-4.9,7.922-14.883,7.922-16.211l-.138-.138a41.125,41.125,0,0,0-8.288,8.518c-3.068,4.3-6.091,9.845-7.327,9.845s-3.709-1.19-3.709-2.427a5.656,5.656,0,0,1,.447-1.627c-.518.554-1.051,1.078-1.585,1.55l-.055.05q-.395.347-.787.648c-.022.017-.043.031-.064.048q-.354.268-.7.493a4.722,4.722,0,0,1-2.423.9c-3.206,0-3.939-3.8-4.076-3.8s-3.48,4.212-7.282,4.212c-2.518,0-4.991-2.06-4.991-6.136,0-.2.009-.4.022-.6-.41.53-.85,1.071-1.308,1.6l-.014.015c-.415.481-.849.948-1.288,1.4-1.8,1.846-3.738,3.31-5.285,3.31a5.045,5.045,0,0,1-4.946-3.8c-.641,1.007-3.342,4.212-6.273,4.212-2.519,0-4.992-2.06-4.992-6.136,0-.259.016-.526.039-.8a36.253,36.253,0,0,1-2.672,3.127c-1.818,1.885-3.778,3.394-5.33,3.394-3.206,0-3.939-3.8-4.077-3.8S223.612,383.218,219.811,383.218Zm113.625-8.41a7.239,7.239,0,0,1-3.158,1.65c0-.073-.007-.155-.007-.246a3.672,3.672,0,0,1,.107-.8A16.466,16.466,0,0,0,333.436,374.808Zm-93.121,10.371h-6.5a14.212,14.212,0,0,0,3.773-2.634A7.854,7.854,0,0,0,240.315,385.179Zm-11.993,0H224a14.521,14.521,0,0,0,2.377-1.468A6.448,6.448,0,0,0,228.322,385.179Zm20.81,49.673h-28.68V433.7H226.2V389.4h-5.749v-1.217h28.68V389.4H243.45v44.3h5.682Zm24.078,0H251.7V433.7h3.45V406.916H251.7v-1.15h15.9v5.276a7.288,7.288,0,0,1,7.44-5.953c3.992,0,6.7,2.3,6.7,6.156,0,3.247-1.894,5.614-5.546,5.614-3.247,0-5.141-1.894-5.141-4.6,0-2.029.947-3.517,2.638-3.922l.067-.068a1.681,1.681,0,0,0-1.623-.812c-3.179,0-4.329,4.464-4.329,9.4V433.7h5.411Zm10.46-19.131v13.622q-6.423-1.036-12.871-1.992v-9.2a8.653,8.653,0,0,0,5.388,1.712A8.116,8.116,0,0,0,283.67,415.721Zm20.089,14.98h-1.441V415.3a6.835,6.835,0,0,1,1.441-4.689Zm20.09,0h-1.441V415.3a6.99,6.99,0,0,1,1.441-4.669Zm1.511-23.853c-3.043,0-5.952,3.112-5.952,8.455v18.4h2.706v1.151H304.053V433.7h2.706V409.554c0-2.164-.271-2.706-1.556-2.706-2.976,0-5.885,3.112-5.885,8.455v18.4h2.706v1.151h-18.8V433.7h3.45V406.916h-2.947a8.225,8.225,0,0,0-.5-.858v-.292h16.1V410.5c1.285-3.72,4.465-5.412,9.4-5.412,5.885,0,9.132,2.5,10.35,6.562,1.082-4.6,4.6-6.562,9.672-6.562,7.509,0,10.755,4.194,10.755,8.929V433.7h3.18v1.151H324.143V433.7h2.706V409.554C326.849,407.39,326.578,406.848,325.36,406.848Z" fill="#9f2929"/>
      <path id="Tracé_37" data-name="Tracé 37" d="M246.276,378.593c2.61,0,9.25-11.814,9.25-12.96,0-2.335-.916-3.159-1.832-3.159-3.892,0-8.838,9.662-8.838,14.058C244.856,377.815,245.314,378.593,246.276,378.593Z" fill="#9f2929"/>
    </g>
    <g id="Groupe_11" data-name="Groupe 11">
      <path id="Tracé_38" data-name="Tracé 38" d="M208.54,394.468c-4.693,0-8.641-4.234-8.641-10.643,0-11.56,11.159-30.73,14.306-35.423l-.286-.056c-4.406,5.321-20.887,30.958-23.233,32.961a6.873,6.873,0,0,1-5.322,1.945c-1.545,0-2.919-.4-2.919-1.144,0-.8.8-1.487,1.488-2.69.686-1.259,10.072-25.236,11.731-30.043h-.515c-5.093,6.868-18.541,34.221-33.362,34.221-6.982,0-10.988-5.207-10.988-12.418,0-9.5,9.442-18.656,18.37-18.656,4.749,0,7.839,4.121,7.839,8.355,0,5.551-6.065,12.59-11.788,12.59-2.346,0-3.662-.458-3.662-.744,0-.343,1.144-.343,2.174-.858.973-.515,7.439-5.093,7.439-11.388,0-3.033-1.373-4.921-3.719-4.921-5.608,0-11.5,8.755-11.5,14.706,0,5.15,2.747,7.955,7.611,7.955,8.07,0,15.681-12.132,20.888-20.487,3.777-6.009,9.442-14.421,13.677-18.14a6.71,6.71,0,0,1,4.388-1.376l.3,0c1.774,0,3.319.287,3.319,2.232,0,2.8-9.213,24.492-10.93,28.555l.344.23c5.036-8.069,17.854-27.24,22.489-30.044a7.837,7.837,0,0,1,4.178-.915c1.2,0,2.975.4,2.975,2.174,0,2.518-5.55,11.217-9.613,19.514s-7.9,16.366-7.9,23.519c0,4.006,2.232,6.239,5.151,6.239,2.288,0,3.261-1.489,3.6-1.489.286,0,.4.286.4.515C216.837,389.72,212.832,394.468,208.54,394.468Z" fill="#ccbf9d"/>
      <path id="Tracé_39" data-name="Tracé 39" d="M361.411,405.089c-10.553,0-14.273,3.856-14.273,7.914a4.414,4.414,0,0,0,4.6,4.668,4.062,4.062,0,0,0,4.329-4.261c0-2.3-1.692-3.924-4.533-3.992v-.067c1.15-2.03,3.518-3.044,6.7-3.044,3.788,0,5.276,1.353,5.276,5.073v6.494c-14.611.473-18.872,4.464-18.872,9.4,0,5.479,5.344,8.388,12.243,8.388,4.464,0,6.967-1.151,7.576-4.668,1.353,2.842,3.856,4.329,8.726,4.329,4.667,0,7.508-1.285,7.508-6.358v-.677h-1.082v.474c0,2.773-.879,4.4-2.571,4.4-.811,0-1.352-.406-1.352-1.759v-15.9C375.683,408.539,371.962,405.089,361.411,405.089Zm2.1,24.283c0,3.112-1.218,4.194-3.382,4.194s-3.314-.947-3.314-6.7c0-6.156,1.285-7.914,6.7-7.982Z" fill="#ccbf9d"/>
      <path id="Tracé_40" data-name="Tracé 40" d="M342.677,433.7H339.5V414.018c0-4.735-3.246-8.929-10.755-8.929-5.073,0-8.59,1.962-9.672,6.562-1.218-4.059-4.465-6.562-10.35-6.562-4.937,0-8.117,1.692-9.4,5.412v-4.735h-16.1v.292a8.225,8.225,0,0,1,.5.858h2.947V433.7h-3.45v1.151h18.8V433.7h-2.706V415.3c0-5.343,2.909-8.455,5.885-8.455,1.285,0,1.556.542,1.556,2.706V433.7h-2.706v1.151h18.061V433.7h-2.706V415.3c0-5.343,2.909-8.455,5.952-8.455,1.218,0,1.489.542,1.489,2.706V433.7h-2.706v1.151h18.534Z" fill="#ccbf9d"/>
      <path id="Tracé_41" data-name="Tracé 41" d="M273.21,433.7H267.8V416.859c0-4.938,1.15-9.4,4.329-9.4a1.681,1.681,0,0,1,1.623.812l-.067.068c-1.691.4-2.638,1.893-2.638,3.922,0,2.706,1.894,4.6,5.141,4.6,3.652,0,5.546-2.367,5.546-5.614,0-3.855-2.7-6.156-6.7-6.156a7.288,7.288,0,0,0-7.44,5.953v-5.276H251.7v1.15h3.45V433.7H251.7v1.151h21.51Z" fill="#ccbf9d"/>
      <path id="Tracé_42" data-name="Tracé 42" d="M249.132,433.7H243.45V389.4h5.682v-1.217H220.452V389.4h5.75v44.3h-5.75v1.15h28.681Z" fill="#ccbf9d"/>
      <g id="Groupe_10" data-name="Groupe 10">
        <g id="Groupe_9" data-name="Groupe 9">
          <path id="Tracé_43" data-name="Tracé 43" d="M173.465,456.395c-.352-1.985-1.886-2.25-4.279-2.679a4.652,4.652,0,0,1-4.179-4.036c-.65-3.664,1.851-6.058,4.8-6.583,2.222-.394,3.651.376,4.1.3.307-.055.41-.438.594-.91l.355-.063.15,5.24-.307.053c-.956-3.462-2.4-4.572-4.619-4.177a2.754,2.754,0,0,0-2.511,3.3c.315,1.773,1.849,2.037,3.087,2.28,2.148.424,4.948.682,5.569,4.181a6,6,0,0,1-5.118,7.149c-2.411.429-4.368-.3-4.935-.2-.307.054-.393.533-.6,1.277l-.379.067-.13-5.95.4-.071c.656,3,2.412,4.935,5.414,4.4A2.833,2.833,0,0,0,173.465,456.395Z" fill="#ccbf9d"/>
          <path id="Tracé_44" data-name="Tracé 44" d="M192.134,455.375A3.614,3.614,0,0,1,189.2,457.8c-2.358.294-3.388-.786-3.248-2.763l-.122-.009c-.411,1.938-1.465,3.376-3.537,3.635-2.763.345-4.035-1.116-4.353-3.665-.547-4.383,1.043-7.92,4.9-8.4,1.763-.22,2.394.378,2.865,1.239l.175-1.3a28.69,28.69,0,0,0,4.335-.735c-.229,3-.5,5.844-.6,9.364a6.7,6.7,0,0,0,.012.869c.078.619.381.727.714.685.358-.045.852-.349,1.409-1.507Zm-6.729-.8a19.168,19.168,0,0,0,.14-5.654c-.178-1.43-.913-1.894-1.58-1.811-.715.09-1.132.818-1.4,2.546a26.28,26.28,0,0,0-.182,6.288c.1.81.313,1.727,1.241,1.61C184.363,457.459,185.069,456.524,185.4,454.571Z" fill="#ccbf9d"/>
          <path id="Tracé_45" data-name="Tracé 45" d="M199.983,454.723a3.779,3.779,0,0,1-3.344,2.4c-1.818.149-3.125-.514-3.29-2.524a15.889,15.889,0,0,1,.12-2.345l.718-6.2-1.89.156.036-.438,6.34-.521c-.575,4.72-.81,6.836-.984,8.536a12.95,12.95,0,0,0-.1,1.694c.036.431.286.555.55.533.43-.036.9-.507,1.465-1.517Zm-6.169-12.62c-.134-1.627,1.223-2.7,2.9-2.84,1.364-.112,2.252.441,2.351,1.637.134,1.627-1.249,2.681-2.876,2.814C194.44,443.858,193.881,442.917,193.814,442.1Z" fill="#ccbf9d"/>
          <path id="Tracé_46" data-name="Tracé 46" d="M206.94,445.217l-.748,5.133a23.41,23.41,0,0,0-.434,3.747c.038.743.254,1.213,1.045,1.173.743-.038,1.363-.622,2.212-2.348l.445.242c-.827,1.7-1.923,3.3-4.3,3.416-2.805.142-3.606-1.427-3.678-2.842a18.685,18.685,0,0,1,.286-3.355l.685-4.938-1.726.088.051-.435,1.725-.088.33-2.492,4.077-1.121.48-.024-.4,3.409,2.517-.128-.05.434Z" fill="#ccbf9d"/>
          <path id="Tracé_47" data-name="Tracé 47" d="M221.032,444.944l-.985,5.093a23.386,23.386,0,0,0-.608,3.722c0,.745.2,1.224.99,1.22.744,0,1.389-.557,2.318-2.242l.433.262c-.9,1.661-2.074,3.2-4.45,3.213-2.808.012-3.535-1.593-3.542-3.009a18.884,18.884,0,0,1,.441-3.338l.915-4.9-1.728.008.07-.432,1.728-.007.445-2.475,4.124-.93.481,0-.561,3.386,2.52-.01-.071.431Z" fill="#ccbf9d"/>
          <path id="Tracé_48" data-name="Tracé 48" d="M223.885,451.638c.128-4.294,2.667-7.315,7.273-7.177,3.19.1,4.878,1.442,4.788,4.464-.151,5.038-3.081,7.5-7.255,7.371C225.381,456.2,223.8,454.613,223.885,451.638Zm8.073-5.041c.032-1.079-.238-1.687-.933-1.708-1.487-.045-1.95,1.79-2.713,5.609a24.261,24.261,0,0,0-.5,3.73c-.032,1.1.24,1.616,1.032,1.64,1.343.04,1.742-1.269,2.619-5.684A24.239,24.239,0,0,0,231.958,446.6Z" fill="#ccbf9d"/>
          <path id="Tracé_49" data-name="Tracé 49" d="M239.58,445.485l-1.628-.113.1-.426,6.129.426c-1.341,4.4-2.127,7.069-2.511,8.774-.137.592-.336,1.372.478,1.429,1.054.073,2.446-2.308,3.334-5.735a25.911,25.911,0,0,0,.813-4.081,44.717,44.717,0,0,0,4.808.045c-.8,2.856-1.927,6.963-2.342,9.123-.151.784-.3,1.52.444,1.571.431.03.959-.294,1.673-1.231l.364.314a3.722,3.722,0,0,1-3.584,1.723c-2.682-.185-3.473-1.612-2.469-4.285l-.141-.057c-1.023,2.262-2.346,4-5.1,3.807-2.275-.158-2.907-1.79-2.381-3.822C238.094,450.939,239.167,446.923,239.58,445.485Z" fill="#ccbf9d"/>
          <path id="Tracé_50" data-name="Tracé 50" d="M259.316,447.109l-1.505,4.964a23.375,23.375,0,0,0-.987,3.64c-.074.74.071,1.236.859,1.314.74.073,1.439-.412,2.536-1.991l.4.3c-1.071,1.558-2.393,2.97-4.757,2.737-2.794-.278-3.352-1.948-3.212-3.358a18.7,18.7,0,0,1,.782-3.274l1.414-4.779-1.719-.17.114-.423,1.719.171.7-2.415,4.2-.5.477.048-.906,3.309,2.507.249-.114.423Z" fill="#ccbf9d"/>
          <path id="Tracé_51" data-name="Tracé 51" d="M277.495,451.37c-.3,2.333-2.94,2.691-5.2,2.713a14.723,14.723,0,0,1-1.872-.123c-.77,3.313-.292,4.852,1.374,5.069,1.166.151,2.56-.515,3.731-3l.458.2c-1.262,2.814-3.158,3.8-6.014,3.43-3.023-.394-4.6-2.244-4.232-5.054.634-4.88,3.911-6.995,8.125-6.446C276.56,448.512,277.724,449.608,277.495,451.37Zm-3.9-2.783c-1.286-.167-2.33,2.093-3.062,4.927,1.628.139,3.206-.455,3.587-3.383C274.236,449.251,274.168,448.661,273.6,448.587Z" fill="#ccbf9d"/>
          <path id="Tracé_52" data-name="Tracé 52" d="M285.021,450.433l-1.744,4.886a23.468,23.468,0,0,0-1.164,3.589c-.109.735.011,1.238.794,1.354.736.11,1.458-.34,2.631-1.866l.389.325c-1.146,1.5-2.535,2.851-4.886,2.5-2.777-.412-3.253-2.108-3.045-3.51a18.762,18.762,0,0,1,.94-3.233l1.646-4.706-1.71-.254.135-.416,1.709.253.815-2.378,4.217-.3.475.071-1.067,3.262,2.493.37-.134.417Z" fill="#ccbf9d"/>
          <path id="Tracé_53" data-name="Tracé 53" d="M300.8,455.9a1.816,1.816,0,0,1-1.122-1.972,1.714,1.714,0,0,1,2.213-1.4c1.774.3,1.9,2.1,1.678,3.406-.574,3.335-3.178,8.415-8.878,7.433-2.034-.351-3.786-1.773-2.808-4.623.678-1.955,1.4-3.631,2.137-5.477.264-.686.317-.993-.014-1.05-.4-.069-1.011.215-2.05,1.156l-.287-.317a4.425,4.425,0,0,1,4.31-1.547c1.868.322,2.766,1.329,2.481,2.986a5.972,5.972,0,0,1-.3,1.019c-.6,1.528-1.183,2.913-1.964,5.044a8.141,8.141,0,0,0-.342,1.135.871.871,0,0,0,.822,1.164c2.176.375,5.306-2.666,5.77-5.362.253-1.466-.129-2.361-.823-2.431Z" fill="#ccbf9d"/>
          <path id="Tracé_54" data-name="Tracé 54" d="M303.815,460.425c.725-4.233,3.659-6.872,8.2-6.1,3.145.537,4.63,2.105,4.12,5.086-.849,4.966-4.092,6.992-8.207,6.289C304.664,465.146,303.314,463.358,303.815,460.425Zm8.7-3.869c.182-1.064,0-1.7-.687-1.821-1.466-.251-2.179,1.5-3.465,5.177a24.047,24.047,0,0,0-1.009,3.625c-.186,1.088.013,1.633.793,1.766,1.325.227,1.9-1.013,3.383-5.263A24.373,24.373,0,0,0,312.51,456.556Z" fill="#ccbf9d"/>
          <path id="Tracé_55" data-name="Tracé 55" d="M319.628,456.274l-1.614-.236.133-.417,6.079.886c-1.669,4.291-2.654,6.888-3.165,8.559-.181.58-.438,1.343.37,1.461,1.044.152,2.612-2.117,3.755-5.466a25.8,25.8,0,0,0,1.118-4.008,45.272,45.272,0,0,0,4.79.409c-1.012,2.786-2.446,6.795-3.022,8.918-.21.771-.412,1.492.324,1.6.427.062.978-.221,1.761-1.1l.338.34a3.722,3.722,0,0,1-3.7,1.448c-2.659-.388-3.34-1.869-2.138-4.458l-.135-.069c-1.191,2.179-2.642,3.81-5.372,3.412-2.255-.329-2.763-2-2.085-3.991C317.736,461.6,319.108,457.677,319.628,456.274Z" fill="#ccbf9d"/>
          <path id="Tracé_56" data-name="Tracé 56" d="M337.667,467.6c.154-1.311-.881-1.748-2.408-2.532-1.3-.66-2.685-1.621-2.452-3.6.309-2.622,2.99-3.635,6.279-3.248,1.931.228,4.23.813,3.986,2.886a1.771,1.771,0,0,1-2.189,1.555c-.835-.1-1.571-.62-1.487-1.335a1.758,1.758,0,0,1,.49-1.078l.763.09a1.447,1.447,0,0,0,.21-.555c.065-.549-.426-.9-1.5-1.023-1.788-.21-2.617.465-2.715,1.3-.138,1.168.657,1.6,2.157,2.406,1.524.807,3.215,1.634,2.98,3.637-.343,2.908-3.208,4.045-6.759,3.627-2.67-.315-4.359-1.36-4.151-3.124a1.872,1.872,0,0,1,2.283-1.737,1.438,1.438,0,0,1,1.4,1.663,2.531,2.531,0,0,1-.33.953l-.954-.113a1.132,1.132,0,0,0-.148.442c-.073.62.437,1.212,1.772,1.369C336.969,469.423,337.574,468.383,337.667,467.6Z" fill="#ccbf9d"/>
          <path id="Tracé_57" data-name="Tracé 57" d="M360.558,463.362c-.572,2.245-1.1,4.2-1.543,6a6.878,6.878,0,0,0-.158.855c-.045.622.231.787.566.811.36.026.9-.174,1.676-1.2l.344.241a3.678,3.678,0,0,1-3.4,1.8c-2.371-.172-3.17-1.433-2.646-3.344l-.118-.034c-.782,1.821-2.1,3.025-4.18,2.873-2.777-.2-3.738-1.883-3.552-4.445.321-4.406,2.572-7.564,6.45-7.282a2.557,2.557,0,0,1,2.62,2.044l1.734-7.648-1.556-.112.1-.426,6.081.441Zm-5.6,4.6a19.261,19.261,0,0,0,1.243-5.518c.1-1.437-.527-2.036-1.2-2.085-.718-.052-1.269.582-1.87,2.223a26.245,26.245,0,0,0-1.408,6.132c-.059.813-.031,1.754.9,1.822C353.367,470.59,354.242,469.812,354.954,467.962Z" fill="#ccbf9d"/>
          <path id="Tracé_58" data-name="Tracé 58" d="M369.738,470.275a3.781,3.781,0,0,1-3.607,1.976c-1.823-.07-3.041-.885-2.964-2.9a16.082,16.082,0,0,1,.4-2.315l1.457-6.071-1.9-.072.089-.429,6.357.243c-1.137,4.617-1.625,6.689-2,8.356a12.9,12.9,0,0,0-.305,1.67c-.017.431.218.584.482.6.432.016.952-.4,1.636-1.331Zm-4.611-13.269c.063-1.631,1.539-2.536,3.218-2.471,1.367.052,2.183.708,2.137,1.907-.062,1.631-1.561,2.511-3.192,2.448C365.539,458.824,365.1,457.822,365.127,457.006Z" fill="#ccbf9d"/>
          <path id="Tracé_59" data-name="Tracé 59" d="M377.533,461.253l-1.056,5.078a23.279,23.279,0,0,0-.66,3.715c-.007.744.181,1.226.973,1.233.744.007,1.4-.539,2.349-2.21l.43.268c-.929,1.647-2.119,3.173-4.495,3.15-2.809-.027-3.513-1.641-3.5-3.058a18.786,18.786,0,0,1,.488-3.332l.982-4.887-1.727-.017.076-.432,1.728.017.479-2.468,4.138-.873.479,0-.608,3.379,2.52.024-.076.431Z" fill="#ccbf9d"/>
          <path id="Tracé_60" data-name="Tracé 60" d="M391.262,460.937l-.81,5.125a23.325,23.325,0,0,0-.479,3.743c.028.743.239,1.216,1.03,1.184.745-.028,1.371-.605,2.241-2.321l.442.247c-.848,1.691-1.963,3.272-4.338,3.363-2.807.11-3.589-1.469-3.643-2.884a18.746,18.746,0,0,1,.326-3.353l.746-4.93-1.728.067.056-.434,1.727-.067.36-2.489,4.09-1.071.48-.019-.445,3.4,2.519-.1-.055.434Z" fill="#ccbf9d"/>
          <path id="Tracé_61" data-name="Tracé 61" d="M394.574,467.552c-.342-4.284,1.852-7.564,6.446-7.93,3.183-.254,5.008.9,5.248,3.915.4,5.025-2.244,7.788-6.407,8.12C396.559,471.92,394.81,470.519,394.574,467.552Zm7.475-5.894c-.086-1.076-.421-1.652-1.114-1.6-1.483.119-1.743,1.993-2.084,5.873a24.031,24.031,0,0,0-.085,3.763c.087,1.1.414,1.58,1.2,1.518,1.34-.107,1.594-1.451,1.983-5.937A24.189,24.189,0,0,0,402.049,461.658Z" fill="#ccbf9d"/>
          <path id="Tracé_62" data-name="Tracé 62" d="M409.173,459.538l-1.619.211.016-.438,6.094-.793c-.445,4.584-.689,7.352-.728,9.1-.018.608-.059,1.411.751,1.306,1.047-.136,1.942-2.747,2.136-6.282a25.982,25.982,0,0,0-.009-4.162,44.986,44.986,0,0,0,4.723-.9c-.22,2.958-.514,7.208-.495,9.409.007.8.008,1.547.747,1.452.428-.056.881-.478,1.4-1.537l.418.236a3.724,3.724,0,0,1-3.174,2.4c-2.666.347-3.723-.9-3.266-3.714l-.15-.029c-.557,2.421-1.512,4.385-4.249,4.74-2.261.3-3.2-1.18-3.089-3.277C408.793,465.179,409.053,461.03,409.173,459.538Z" fill="#ccbf9d"/>
          <path id="Tracé_63" data-name="Tracé 63" d="M428.5,456.69l-.139,5.183a23.431,23.431,0,0,0,.009,3.771c.125.733.4,1.174,1.175,1.041.734-.125,1.28-.778,1.919-2.591l.471.188c-.621,1.785-1.523,3.5-3.863,3.9-2.768.471-3.747-.993-3.985-2.389a18.693,18.693,0,0,1-.11-3.364l.1-4.982-1.7.29,0-.437,1.7-.291.034-2.512,3.915-1.592.473-.08v3.431l2.484-.423v.438Z" fill="#ccbf9d"/>
        </g>
      </g>
      <path id="Tracé_64" data-name="Tracé 64" d="M341.375,370.442c-.549,0-5.586,9.067-11.677,9.067-1.694,0-2.427-1.282-2.427-3.3a9.89,9.89,0,0,1,.962-3.755,1.262,1.262,0,0,0,.412.046c7.372,0,12.455-5.953,12.455-9.388,0-1.785-1.373-3.48-2.838-3.48-.962,0-1.832.5-3.481.5-4.5,0-9.4,5.623-11.686,10.915-.321.429-.751,1.028-1.242,1.7h0l-.047.062-.075.1c-.339.46-.7.948-1.087,1.44l-.011.014c-.4.511-.808,1.021-1.223,1.5l0,0c-1.268,1.476-2.551,2.67-3.442,2.67-.962,0-1.1-.411-1.1-.961,0-1.969,5.174-11.311,5.816-12.547.6-1.237,1.19-2.015,1.19-3.252,0-.824-2.2-1.968-3.892-1.968-2.29,0-6.778,4.944-8.2,6.548a23.991,23.991,0,0,0,1.465-3.8c0-1.235-2.427-2.655-4.4-2.655-2.015,0-8.7,7.006-8.838,7.006.183-.641,2.152-4.854,2.152-5.862,0-.915-3.068-1.648-3.847-1.648-.687,0-3.205,3.846-6.273,9.662q-.553,1.058-1.068,2.057c-.562.74-1.418,1.946-2.393,3.169l-.007.016c-1.35,1.7-2.927,3.408-4.279,3.978l-.008,0h0a2.286,2.286,0,0,1-.851.211c-.458,0-.687-.32-.687-.779,0-2.839,8.06-14.195,8.06-16.714,0-.642-.687-.733-1.145-.825a3.213,3.213,0,0,0-1.328-.274c-.824,0-3.252,2.977-3.481,2.977a4.067,4.067,0,0,0-4.167-3.161c-5.513,0-11.268,5.725-13.942,11.433-.32.431-.742,1.018-1.223,1.665l0,.006c-1.769,2.387-4.4,5.672-6.261,5.672-.458,0-.687-.32-.687-.779,0-3.755,12.181-23.813,12.181-25.6,0-1.511-1.236-3.618-3.068-3.618-.916,0-6.64,12.181-7.876,14.38-.046-.413-.6-3.161-3.206-3.161-5.4,0-11.031,5.487-13.773,11.073-.448.557-1.209,1.637-2.113,2.814l0,.006c-.129.169-.263.34-.4.511-.036.047-.073.092-.11.139-.191.241-.387.483-.586.722l-.083.1q-.313.375-.636.733l-.061.068c-.222.244-.444.48-.668.7l-.017.018h0c-1.1,1.093-2.2,1.891-3.117,1.891-.458,0-.687-.32-.687-.779,0-2.839,8.06-14.195,8.06-16.714,0-.642-.687-.733-1.145-.825a3.213,3.213,0,0,0-1.328-.274c-.825,0-3.252,2.977-3.481,2.977a4.068,4.068,0,0,0-4.167-3.161c-7.51,0-15.478,10.625-15.478,17.356,0,4.076,2.473,6.136,4.991,6.136,3.8,0,7.144-4.212,7.281-4.212s.871,3.8,4.077,3.8c1.552,0,3.512-1.509,5.33-3.394a36.253,36.253,0,0,0,2.672-3.127c-.023.271-.039.538-.039.8,0,4.076,2.473,6.136,4.992,6.136,2.931,0,5.632-3.2,6.273-4.212a5.045,5.045,0,0,0,4.946,3.8c1.547,0,3.483-1.464,5.285-3.31.439-.451.873-.918,1.288-1.4l.014-.015c.458-.532.9-1.073,1.308-1.6-.013.2-.022.406-.022.6,0,4.076,2.473,6.136,4.991,6.136,3.8,0,7.144-4.212,7.282-4.212s.87,3.8,4.076,3.8a4.722,4.722,0,0,0,2.423-.9q.348-.225.7-.493c.021-.017.042-.031.064-.048q.391-.3.787-.648l.055-.05c.534-.472,1.067-1,1.585-1.55a5.656,5.656,0,0,0-.447,1.627c0,1.237,2.473,2.427,3.709,2.427s4.259-5.54,7.327-9.845a41.125,41.125,0,0,1,8.288-8.518l.138.138c0,1.328-5.679,11.311-7.922,16.211a.578.578,0,0,0-.046.274c0,.962,2.61,1.97,4.213,1.97.916,0,2.61-4.305,5.312-8.61a41,41,0,0,1,8.838-10.166l.137.092c-1.145,1.649-5.953,9.067-5.953,14.288a4.142,4.142,0,0,0,4.213,4.075c1.869,0,4.142-1.707,6.16-3.795v0a34.229,34.229,0,0,0,2.636-3.1c0,.069-.008.141-.008.209,0,3.755,2.427,6.915,5.541,6.915,7.6,0,14.608-9.708,14.608-11.357C341.925,371.266,341.879,370.442,341.375,370.442Zm-4.487-8.151c.549,0,.824.274.824.778,0,2.611-4.717,6.32-8.335,7.1C331.667,366.137,335.285,362.291,336.888,362.291ZM225.032,374.7v.366c.366,0,1.328.092,1.328.458,0,.87-3.205,3.068-4.4,3.068-.916,0-1.42-.824-1.42-2.289,0-4.488,5.358-14.059,9.067-14.059,1.1,0,1.878,1.1,1.878,2.518C231.489,368.977,226.223,374.38,225.032,374.7Zm21.244,3.892c-.962,0-1.42-.778-1.42-2.061,0-4.4,4.946-14.058,8.838-14.058.916,0,1.832.824,1.832,3.159C255.526,366.779,248.886,378.593,246.276,378.593Zm27.152-3.892v.366c.367,0,1.328.092,1.328.458,0,.87-3.205,3.068-4.4,3.068-.916,0-1.42-.824-1.42-2.289,0-4.488,5.358-14.059,9.067-14.059,1.1,0,1.878,1.1,1.878,2.518C279.885,368.977,274.619,374.38,273.428,374.7Z" fill="#ccbf9d"/>
    </g>
  </g>
</svg>
